<svg width="299" height="239" viewBox="0 0 299 239" fill="none" xmlns="http://www.w3.org/2000/svg">
<g filter="url(#filter0_d_78_266)">
<g filter="url(#filter1_i_78_266)">
<path d="M91.0678 19.3491C40.3973 51.7841 -44.0795 174.056 39.023 225.431C78.3328 249.733 104.977 180.976 160.119 179.231C215.261 177.486 243.742 200.953 275.98 184.597C297.284 173.787 304.188 129.9 275.98 82.6873C235.044 14.1731 160.023 -24.7902 91.0678 19.3491Z" fill="#F1F1FA"/>
</g>
<mask id="mask0_78_266" style="mask-type:alpha" maskUnits="userSpaceOnUse" x="4" y="0" width="291" height="231">
<path d="M91.0678 19.3491C40.3973 51.7841 -44.0795 174.056 39.023 225.431C78.3328 249.733 104.977 180.976 160.119 179.231C215.261 177.486 243.742 200.953 275.98 184.597C297.284 173.787 304.188 129.9 275.98 82.6873C235.044 14.1731 160.023 -24.7902 91.0678 19.3491Z" fill="#F1F1FA"/>
</mask>
<g mask="url(#mask0_78_266)">
<path d="M295.879 198.937L299.925 200.589L62.8887 266.371C-7.06229 258.941 -140.767 235.383 -115.976 200.589C-84.987 157.096 -50.1927 131 31.3564 131C129.5 131 142.585 136.343 295.879 198.937Z" fill="#BBBBD6"/>
<path d="M333.983 144C376.587 144 410.906 153.443 447 198.885L331.617 252C255.483 243.934 147.24 252.59 174.222 214.82C207.949 167.607 245.227 144 333.983 144Z" fill="#BBBBD6" stroke="#F1F1FA" stroke-width="4.34928"/>
<path d="M66.8046 408.722H66.7964C54.0292 408.657 43.5545 396.676 43.6045 382.935L43.6045 382.934L44.6415 111.53L44.6415 111.528C44.6757 104.904 47.0766 98.5374 51.3607 93.8328C55.6497 89.123 61.4859 86.4593 67.5983 86.4916L66.8046 408.722ZM66.8046 408.722L163.905 408.722C163.907 408.722 163.909 408.722 163.911 408.722C166.935 408.737 169.927 408.091 172.715 406.826C175.505 405.56 178.031 403.702 180.154 401.366C182.276 399.031 183.956 396.263 185.103 393.224C186.25 390.186 186.844 386.932 186.856 383.646C186.856 383.646 186.856 383.646 186.856 383.646L187.893 112.242C187.918 105.613 185.571 99.2169 181.326 94.4647C177.075 89.707 171.258 86.9807 165.141 86.9504L165.141 86.9504L67.5993 86.4916L66.8046 408.722Z" fill="url(#paint0_linear_78_266)" stroke="black" stroke-width="3.2"/>
<path d="M142.906 105.109L142.907 105.12L142.906 108.919C142.923 110.617 142.335 112.278 141.234 113.536C140.128 114.799 138.583 115.559 136.925 115.591L136.908 115.591L136.891 115.591L100.021 115.403L100.003 115.403L99.9858 115.402C98.3207 115.352 96.7772 114.571 95.6801 113.289C94.5906 112.015 94.0188 110.343 94.053 108.64V104.849V104.838L94.0532 104.827C94.0701 103.77 93.7108 102.772 93.088 102.043C92.4752 101.325 91.667 100.933 90.8478 100.894H84.2226H84.2156L67.6683 100.811C67.6677 100.811 67.6671 100.811 67.6666 100.811C65.9144 100.807 64.1745 101.185 62.5448 101.93C60.914 102.675 59.4214 103.773 58.1564 105.171C56.8911 106.568 55.8796 108.237 55.1858 110.084C54.492 111.931 54.1314 113.915 54.1273 115.924L54.1273 115.926L53.1174 380.837C53.1174 380.838 53.1174 380.838 53.1174 380.838C53.1094 384.889 54.5489 388.753 57.0832 391.59C59.6135 394.422 63.019 395.994 66.5431 396.019L163.89 396.516L142.906 105.109ZM142.906 105.109C142.898 104.058 143.265 103.071 143.891 102.357C144.509 101.652 145.319 101.277 146.135 101.255L165.028 101.353C165.028 101.353 165.029 101.353 165.029 101.353C168.549 101.38 171.949 102.95 174.477 105.778C177.01 108.61 178.45 112.468 178.447 116.514L177.437 381.423V381.424M142.906 105.109L177.437 381.424M177.437 381.424C177.424 385.483 175.958 389.345 173.399 392.166C170.846 394.981 167.423 396.525 163.893 396.516L177.437 381.424Z" fill="#F1F1FA" stroke="black" stroke-width="2.8"/>
<path d="M131.774 159.873C131.548 159.479 126.126 150.216 116.445 150.216C106.765 150.216 101.342 159.479 101.116 159.873C100.215 161.445 100.632 163.53 102.048 164.53C103.465 165.53 105.343 165.067 106.244 163.495C106.282 163.43 110.064 156.962 116.445 156.962C122.826 156.962 126.609 163.43 126.646 163.495C127.547 165.067 129.426 165.53 130.842 164.53C132.258 163.53 132.676 161.445 131.774 159.873ZM103.224 127.955C105.322 127.955 107.023 129.843 107.023 132.171C107.023 134.5 105.322 136.387 103.224 136.387C101.126 136.387 99.4247 134.5 99.4247 132.171C99.4247 129.843 101.126 127.955 103.224 127.955ZM126.019 132.171C126.019 134.5 127.72 136.387 129.818 136.387C131.916 136.387 133.617 134.5 133.617 132.171C133.617 129.843 131.916 127.955 129.818 127.955C127.72 127.955 126.019 129.843 126.019 132.171Z" fill="url(#paint1_linear_78_266)"/>
<path d="M131.774 159.873C131.548 159.479 126.126 150.216 116.445 150.216C106.765 150.216 101.342 159.479 101.116 159.873C100.215 161.445 100.632 163.53 102.048 164.53C103.465 165.53 105.343 165.067 106.244 163.495C106.282 163.43 110.064 156.962 116.445 156.962C122.826 156.962 126.609 163.43 126.646 163.495C127.547 165.067 129.426 165.53 130.842 164.53C132.258 163.53 132.676 161.445 131.774 159.873ZM103.224 127.955C105.322 127.955 107.023 129.843 107.023 132.171C107.023 134.5 105.322 136.387 103.224 136.387C101.126 136.387 99.4247 134.5 99.4247 132.171C99.4247 129.843 101.126 127.955 103.224 127.955ZM126.019 132.171C126.019 134.5 127.72 136.387 129.818 136.387C131.916 136.387 133.617 134.5 133.617 132.171C133.617 129.843 131.916 127.955 129.818 127.955C127.72 127.955 126.019 129.843 126.019 132.171Z" stroke="url(#paint2_linear_78_266)" stroke-width="2"/>
<path d="M131.774 159.873C131.548 159.479 126.126 150.216 116.445 150.216C106.765 150.216 101.342 159.479 101.116 159.873C100.215 161.445 100.632 163.53 102.048 164.53C103.465 165.53 105.343 165.067 106.244 163.495C106.282 163.43 110.064 156.962 116.445 156.962C122.826 156.962 126.609 163.43 126.646 163.495C127.547 165.067 129.426 165.53 130.842 164.53C132.258 163.53 132.676 161.445 131.774 159.873ZM103.224 127.955C105.322 127.955 107.023 129.843 107.023 132.171C107.023 134.5 105.322 136.387 103.224 136.387C101.126 136.387 99.4247 134.5 99.4247 132.171C99.4247 129.843 101.126 127.955 103.224 127.955ZM126.019 132.171C126.019 134.5 127.72 136.387 129.818 136.387C131.916 136.387 133.617 134.5 133.617 132.171C133.617 129.843 131.916 127.955 129.818 127.955C127.72 127.955 126.019 129.843 126.019 132.171Z" stroke="black" stroke-width="2"/>
<path d="M193.63 77.8438C191.521 80.1843 191.521 83.9809 193.63 86.3215C195.74 88.6616 199.16 88.6616 201.27 86.3215C203.379 83.9809 203.379 80.1843 201.27 77.8438C199.16 75.5032 195.74 75.5032 193.63 77.8438Z" fill="#BBBBD6"/>
<path d="M197.45 63.5874C193 63.5874 188.813 65.5112 185.667 69.0051C184.432 70.3758 184.432 72.5973 185.667 73.9671C186.902 75.3377 188.903 75.3377 190.139 73.9671C192.089 71.799 194.687 70.6054 197.45 70.6054C200.213 70.6054 202.811 71.799 204.762 73.9671C205.38 74.6524 206.191 74.9949 206.998 74.9949C207.809 74.9949 208.615 74.6524 209.233 73.9671C210.468 72.5973 210.468 70.3759 209.233 69.0051C206.087 65.5112 201.9 63.5874 197.45 63.5874Z" fill="#BBBBD6"/>
<path d="M197.45 52.0332C190.217 52.0332 183.417 55.1593 178.304 60.8348C177.069 62.2054 177.069 64.4272 178.304 65.7967C179.539 67.1674 181.541 67.1674 182.775 65.7967C186.694 61.4462 191.906 59.0507 197.45 59.0507C202.991 59.0507 208.204 61.4462 212.123 65.7967C212.74 66.4822 213.551 66.8248 214.358 66.8248C215.169 66.8248 215.977 66.4822 216.594 65.7967C217.829 64.4272 217.829 62.2054 216.594 60.8348C211.48 55.1593 204.683 52.0332 197.45 52.0332Z" fill="#BBBBD6"/>
<path d="M223.974 52.6472C216.89 44.7832 207.471 40.4531 197.45 40.4531C187.429 40.4531 178.01 44.7832 170.926 52.6472C169.691 54.018 169.691 56.2397 170.926 57.6093C171.544 58.2946 172.353 58.637 173.162 58.637C173.971 58.637 174.782 58.2946 175.397 57.6093C181.287 51.0709 189.12 47.4707 197.45 47.4707C205.781 47.4707 213.611 51.0709 219.501 57.6093C220.735 58.9799 222.736 58.9786 223.972 57.6105C225.207 56.2397 225.207 54.018 223.974 52.6472Z" fill="#BBBBD6"/>
<path d="M198.476 71.1186C197.624 71.1186 196.886 70.8345 196.261 70.2664C195.693 69.6983 195.352 68.8746 195.238 67.7952L192.085 34.6467L192 33.7946C192 32.0335 192.597 30.6417 193.79 29.6191C195.039 28.5397 196.602 28 198.476 28C200.351 28 201.885 28.5397 203.078 29.6191C204.328 30.6417 204.953 32.0335 204.953 33.7946L204.867 34.732L201.714 67.7952C201.601 68.8746 201.232 69.6983 200.607 70.2664C200.039 70.8345 199.328 71.1186 198.476 71.1186ZM198.476 89.0137C196.658 89.0137 195.153 88.4172 193.96 87.2241C192.767 85.9743 192.17 84.4405 192.17 82.6226C192.17 80.8046 192.767 79.2992 193.96 78.1062C195.153 76.8564 196.658 76.2315 198.476 76.2315C200.294 76.2315 201.8 76.8564 202.993 78.1062C204.186 79.2992 204.782 80.8046 204.782 82.6226C204.782 84.4405 204.186 85.9743 202.993 87.2241C201.8 88.4172 200.294 89.0137 198.476 89.0137Z" fill="url(#paint3_linear_78_266)"/>
</g>
</g>
<defs>
<filter id="filter0_d_78_266" x="0.036499" y="0.606445" width="298.6" height="238.019" filterUnits="userSpaceOnUse" color-interpolation-filters="sRGB">
<feFlood flood-opacity="0" result="BackgroundImageFix"/>
<feColorMatrix in="SourceAlpha" type="matrix" values="0 0 0 0 0 0 0 0 0 0 0 0 0 0 0 0 0 0 127 0" result="hardAlpha"/>
<feOffset dy="4"/>
<feGaussianBlur stdDeviation="2"/>
<feComposite in2="hardAlpha" operator="out"/>
<feColorMatrix type="matrix" values="0 0 0 0 0 0 0 0 0 0 0 0 0 0 0 0 0 0 0.25 0"/>
<feBlend mode="normal" in2="BackgroundImageFix" result="effect1_dropShadow_78_266"/>
<feBlend mode="normal" in="SourceGraphic" in2="effect1_dropShadow_78_266" result="shape"/>
</filter>
<filter id="filter1_i_78_266" x="4.0365" y="0.606445" width="290.6" height="236.158" filterUnits="userSpaceOnUse" color-interpolation-filters="sRGB">
<feFlood flood-opacity="0" result="BackgroundImageFix"/>
<feBlend mode="normal" in="SourceGraphic" in2="BackgroundImageFix" result="shape"/>
<feColorMatrix in="SourceAlpha" type="matrix" values="0 0 0 0 0 0 0 0 0 0 0 0 0 0 0 0 0 0 127 0" result="hardAlpha"/>
<feOffset dy="6.1386"/>
<feGaussianBlur stdDeviation="8.1848"/>
<feComposite in2="hardAlpha" operator="arithmetic" k2="-1" k3="1"/>
<feColorMatrix type="matrix" values="0 0 0 0 0 0 0 0 0 0 0 0 0 0 0 0 0 0 0.25 0"/>
<feBlend mode="normal" in2="shape" result="effect1_innerShadow_78_266"/>
</filter>
<linearGradient id="paint0_linear_78_266" x1="104.478" y1="92.1112" x2="234.818" y2="348.245" gradientUnits="userSpaceOnUse">
<stop stop-color="#FFC4B1"/>
<stop offset="1" stop-color="#FF6969"/>
</linearGradient>
<linearGradient id="paint1_linear_78_266" x1="113.789" y1="128.423" x2="122.432" y2="163.813" gradientUnits="userSpaceOnUse">
<stop stop-color="#FFC4B1"/>
<stop offset="1" stop-color="#FF6969"/>
</linearGradient>
<linearGradient id="paint2_linear_78_266" x1="113.789" y1="128.423" x2="122.432" y2="163.813" gradientUnits="userSpaceOnUse">
<stop stop-color="#FFC4B1"/>
<stop offset="1" stop-color="#FF6969"/>
</linearGradient>
<linearGradient id="paint3_linear_78_266" x1="197.442" y1="28.7688" x2="228.224" y2="57.8065" gradientUnits="userSpaceOnUse">
<stop stop-color="#FFC4B1"/>
<stop offset="1" stop-color="#FF6969"/>
</linearGradient>
</defs>
</svg>
